PathFileType	4	(X/Y/Z)	RBDS09\RBDS09runT45.trc
DataRate	CameraRate	NumFrames	NumMarkers	Units	OrigDataRate	OrigDataStartFrame	OrigNumFrames
150.000000	150.000000	4	33	mm	150.000000	1125	4500
Frame#	Time	L.ASIS			L.Heel.Bottom			L.Heel.Lateral			L.Heel.Top			L.Iliac.Crest			L.MT1			L.MT5			L.PSIS			L.Shank.Bottom.Lateral			L.Shank.Bottom.Medial			L.Shank.Top.Lateral			L.Shank.Top.Medial			L.Thigh.Bottom.Lateral			L.Thigh.Bottom.Medial			L.Thigh.Top.Lateral			L.Thigh.Top.Medial			R.ASIS			R.ASY			R.Heel.Bottom			R.Heel.Lateral			R.Heel.Top			R.Iliac.Crest			R.MT1			R.MT5			R.PSIS			R.Shank.Bottom.Lateral			R.Shank.Bottom.Medial			R.Shank.Top.Lateral			R.Shank.Top.Medial			R.Thigh.Bottom.Lateral			R.Thigh.Bottom.Medial			R.Thigh.Top.Lateral			R.Thigh.Top.Medial			
		X1	Y1	Z1	X2	Y2	Z2	X3	Y3	Z3	X4	Y4	Z4	X5	Y5	Z5	X6	Y6	Z6	X7	Y7	Z7	X8	Y8	Z8	X9	Y9	Z9	X10	Y10	Z10	X11	Y11	Z11	X12	Y12	Z12	X13	Y13	Z13	X14	Y14	Z14	X15	Y15	Z15	X16	Y16	Z16	X17	Y17	Z17	X18	Y18	Z18	X19	Y19	Z19	X20	Y20	Z20	X21	Y21	Z21	X22	Y22	Z22	X23	Y23	Z23	X24	Y24	Z24	X25	Y25	Z25	X26	Y26	Z26	X27	Y27	Z27	X28	Y28	Z28	X29	Y29	Z29	X30	Y30	Z30	X31	Y31	Z31	X32	Y32	Z32	X33	Y33	Z33	

1126	7.500000000000001	2350.115038296633	918.6841076503692	889.4566927272011	1952.581881282769	492.8775482226463	928.4190819398502	1973.925629992747	465.5513579109698	883.0343368754976	2001.357743576591	486.1144827448578	929.1727961874213	2286.721650116093	975.7180944221926	849.170442076534	1974.598274156783	277.4395160983967	942.1626490242403	1969.880070258866	325.5344486411014	840.1832909558653	2180.140678464069	949.8512889361861	951.9699461371654	2099.685296571604	451.0293046699134	859.9447909468013	2093.523865982111	484.9425039426783	901.0004098277931	2176.029680255273	473.8480339320532	850.6741623849076	2171.149429761112	506.5240733294451	892.511182708019	2351.717197366434	565.4207698316087	826.65365075472	2303.945239417877	539.9341277644227	875.9185337668614	2299.27900611757	661.6209081424764	825.4159459373384	2254.818082711129	638.7685340479155	874.2035509148416	2322.9857332428	922.8822257483362	1125.969136952149	2185.242466185767	87.47574901342816	1018.714030057564	2014.776261656874	45.60576768488637	970.2142034930591	2040.859599890133	64.05912484420814	1021.087258819075	2031.937163085142	92.23470777701708	970.9853053265407	2251.566176972554	970.874050754724	1158.154779673509	2228.969253517142	43.1193616697818	984.263813742288	2169.147958023602	35.9666123192162	1080.908967004493	2171.252677421762	951.0177469394589	1026.964613190042	2100.487626964397	180.2368465084028	1045.681326559499	2087.444853136341	199.7307221762809	999.923542233964	2127.171045910818	257.7969898034165	1068.477164305535	2114.428754399563	273.5743450671453	1019.180826943134	2274.207170855406	525.1861904314238	1134.247997299665	2218.885970649982	517.5492534801066	1088.238937289504	2244.990071721257	630.5405653887473	1148.911588326594	2192.239585576772	622.9828114306162	1105.64738670159	
1127	7.506666666666667	2349.5641378801	923.3860163439076	889.0554365307422	1966.522075088167	474.5793921228545	925.32281215835	1989.930020540087	449.1323870505983	879.865124035835	2015.639127256705	471.2281764299219	926.0787905220399	2280.868704747367	979.4731115593103	850.0301122634298	2003.121406040601	261.1946107240111	937.5246163402487	1995.63356017143	309.5258697630657	835.8991406466787	2180.14094068474	952.7075578036944	953.5384341018137	2116.741374333976	441.2916381001193	857.1928795854008	2108.128181784493	475.6418670653639	897.4960731852051	2191.53043841996	468.7321861450684	847.9178540006661	2184.193200143778	502.1298944752903	888.9966990376231	2364.944473657058	573.7228440066226	826.103454881666	2317.71343037358	546.0124780742477	874.8564449130764	2308.112479417269	667.3500395825523	824.5503292593538	2263.9397657579	642.3777037936259	872.6863019768557	2324.332691880624	924.8826943922386	1126.46754395656	2156.709324330998	88.16254647752518	1020.730940323893	1985.576779489232	51.83564133884222	971.1780515850791	2012.059645211533	68.64252083283392	1022.317405747173	2003.522766302685	97.96144971113169	972.8414922350988	2251.298479080559	974.886816256161	1158.380364927652	2198.592462576424	43.0451214814967	984.9752890071575	2138.987532674986	35.68773548462316	1081.6262475178	2172.419978896522	953.6686467994613	1028.516641401074	2073.812365066854	185.2538973197347	1046.855946671537	2061.571398395759	204.8531463214005	1000.959242961586	2102.076693373571	262.2039554946614	1069.468012023967	2090.188195739689	278.0478699015445	1020.025644438251	2258.740546286675	526.5722421000697	1135.053162498664	2202.50205356719	521.553534581688	1089.90655078175	2234.896011796913	633.2785745920621	1149.659776970548	2181.46245356921	628.2427760853379	1106.880325018847	
1128	7.513333333333334	2349.570135515431	928.6516719685727	888.7570472689439	1981.050365177228	454.6462371028098	923.103875416794	2006.345216271227	431.5452035870322	877.4660294656793	2030.282031442404	454.9687255498133	923.8144436489087	2275.890948552551	983.9308369141892	851.0761832469242	2032.859855384551	244.4387404447026	932.6011472187489	2022.147185587723	293.2998647193797	831.665688143486	2180.733405408833	956.0783032339622	955.1594332482754	2133.760353361069	431.0913818982239	854.8902547816547	2122.603796295948	465.503063821549	894.6015161750342	2206.57726401068	463.3872079634132	845.6508945899307	2196.692572007223	497.1391323191938	886.0962148054285	2377.437034549344	582.8110818028009	826.0835298288962	2331.001067025736	553.2087160569553	874.6048330974972	2316.549356208153	673.8901345187279	824.1481624546527	2272.923943796286	647.0370206337547	871.8191140065684	2326.19848707046	927.0563190504922	1126.870770780584	2128.930290815467	88.85423019756814	1022.837031565461	1957.207706987803	59.48168569832819	972.2573552249032	1984.114367353804	74.338803661189	1023.65203148602	1976.263141589866	104.8931765927717	974.8448792690472	2252.16345871866	979.627248745572	1158.582341503035	2168.584974953764	42.6872960080617	985.6149005032713	2109.134177095726	35.53873404983285	1082.321815696027	2174.127984424418	956.7224926588423	1030.141189430963	2047.738879912743	191.0754817925302	1047.996209873137	2036.34759480355	210.6448849414868	1001.891181539618	2077.188170960461	267.5313363913546	1070.374372769222	2066.216666080789	283.3066940373193	1020.740229554165	2242.765875199634	529.2447183871274	1135.714020936045	2185.873478564435	527.0505004985573	1091.248687820669	2224.627830767437	637.0604890760552	1150.252476637107	2170.824873488246	634.7411393174601	1107.754283795769	
1129	7.52	2350.150215167661	934.2765416179851	888.6882866798481	1996.432176684862	433.3079629854823	921.6543134029405	2023.378254242138	412.9327994374915	875.7571885959453	2045.505584829575	437.4987577876444	922.2999321314401	2272.161546191762	988.9299706440311	852.2344422726953	2063.826619739007	227.5264236879471	927.5685472662341	2049.455795252456	277.0259882715872	827.5845982429827	2181.90504143986	959.9113879380886	956.7332304632581	2150.868073312403	420.5400580035263	853.0258733769335	2137.154446102614	454.5726736276239	892.3495275786953	2221.271410067033	457.8123503300453	843.8792809201858	2208.833797915428	491.4637467007412	883.8715909877126	2389.009559596061	592.4077569736371	826.5207811620385	2343.53151223555	561.2220014320088	875.0235822918654	2324.463091874287	681.0419174991883	824.1955696380491	2281.558102537513	652.5283118634018	871.5314352508568	2328.480769923231	929.3114460303045	1127.228850495638	2101.997524212751	89.64699781378461	1025.037297775998	1929.867032798492	68.65413678056382	973.5202820628404	1957.197962181655	81.27344123697455	1025.14983134387	1950.364612135633	113.1071310706366	977.0490229499434	2254.368282384662	984.8431405708013	1158.787624722793	2139.026450819111	42.18477272970397	986.2321897354103	2079.680834641427	35.70612406971922	1083.024136005809	2176.314730230218	960.117972980966	1031.739809938963	2022.532604923396	197.7574037853597	1049.171842930054	2011.986532558392	217.1638514831731	1002.804250095969	2052.826789214714	273.8582718574178	1071.248592756239	2042.768049886098	289.4351726508751	1021.391032061892	2226.565084620422	533.2925716933621	1136.176292037239	2169.361741888057	534.0903787954563	1092.130504145847	2214.374688729536	641.9173181741351	1150.643430933088	2160.58912972682	642.4626662109974	1108.156104389697	
